<?xml version="1.0" standalone="no"?>
<!DOCTYPE svg PUBLIC "-//W3C//DTD SVG 20010904//EN"
 "http://www.w3.org/TR/2001/REC-SVG-20010904/DTD/svg10.dtd">
<svg version="1.0" xmlns="http://www.w3.org/2000/svg"
 width="512.000000pt" height="512.000000pt" viewBox="0 0 512.000000 512.000000"
 preserveAspectRatio="xMidYMid meet">
<metadata>
Created by potrace 1.14, written by Peter Selinger 2001-2017
</metadata>
<g transform="translate(0.000000,512.000000) scale(0.100000,-0.100000)"
fill="#000000" stroke="none">
<path d="M2379 5116 c-2 -2 -35 -6 -74 -10 -187 -16 -414 -67 -616 -139 -628
-223 -1153 -702 -1447 -1320 -47 -98 -127 -306 -137 -357 -2 -8 -10 -40 -19
-70 -33 -114 -58 -256 -76 -430 -8 -81 -5 -463 5 -520 3 -19 13 -78 21 -130
149 -933 828 -1722 1732 -2014 108 -35 247 -71 320 -82 19 -3 44 -7 56 -10 11
-2 48 -7 81 -10 33 -4 64 -9 69 -12 15 -9 429 -10 501 -1 39 5 93 11 120 15
185 22 459 98 650 179 655 280 1175 835 1410 1506 20 57 38 111 40 119 2 8 10
40 19 70 55 195 80 399 81 655 0 227 -10 339 -50 530 -189 920 -890 1674
-1796 1934 -111 32 -273 67 -354 76 -27 3 -61 8 -75 11 -27 6 -456 15 -461 10z
m401 -380 c330 -36 666 -150 931 -318 98 -62 79 -48 204 -146 161 -128 341
-317 433 -455 15 -22 34 -50 42 -63 127 -189 259 -495 295 -682 1 -9 8 -35 13
-57 6 -22 14 -60 17 -85 3 -25 8 -52 10 -60 18 -68 25 -361 12 -506 -37 -425
-206 -841 -480 -1180 -35 -44 -113 -128 -173 -187 l-109 -108 -3 103 c-1 57
-3 708 -5 1448 l-2 1344 -22 -1 c-13 0 -28 -1 -33 -2 -15 -2 -77 -70 -116
-128 -86 -130 -188 -406 -233 -638 -6 -28 -13 -61 -16 -75 -8 -41 -24 -132
-30 -175 -3 -22 -8 -51 -10 -65 -3 -14 -7 -47 -11 -75 -3 -27 -7 -61 -9 -74
-3 -13 -7 -61 -11 -105 -3 -45 -8 -89 -10 -99 -3 -17 -11 -141 -19 -292 -2
-38 -7 -176 -10 -305 l-5 -235 51 -19 c76 -26 149 -103 173 -180 24 -74 17
-191 -15 -291 -19 -60 -23 -92 -23 -224 l-1 -154 -70 -37 c-138 -72 -345 -147
-500 -180 -27 -6 -58 -13 -67 -16 -16 -5 -17 30 -18 553 0 307 -2 569 -4 583
-3 14 -9 45 -15 70 -10 45 -18 88 -27 145 -10 61 -11 228 -2 273 5 26 11 57
14 70 18 90 73 187 166 295 120 139 159 253 137 397 -4 25 -10 74 -14 110 -3
36 -8 76 -10 90 -2 14 -6 54 -10 90 -4 36 -8 76 -10 90 -2 14 -6 50 -10 80 -3
30 -8 71 -10 90 -3 19 -7 60 -10 90 -9 89 -25 223 -31 248 -4 19 -11 22 -55
22 l-50 0 6 -187 c6 -197 12 -414 20 -721 l6 -183 -63 3 -63 3 1 543 0 542
-46 0 -46 0 1 -545 c0 -355 -3 -546 -10 -548 -5 -2 -28 -3 -50 -2 l-40 1 -3
547 -2 547 -50 0 -50 0 -2 -547 -3 -547 -58 -1 -59 -1 7 215 c3 119 8 259 10
311 2 52 7 194 10 315 4 120 7 222 7 225 2 27 -5 31 -49 28 -32 -2 -47 -8 -48
-18 -1 -8 -6 -44 -9 -80 -9 -75 -12 -100 -20 -155 -3 -22 -8 -62 -11 -90 -3
-27 -7 -61 -10 -75 -2 -14 -6 -50 -10 -80 -6 -56 -11 -95 -20 -165 -3 -22 -8
-64 -11 -94 -3 -30 -8 -64 -10 -75 -13 -64 -16 -178 -4 -227 19 -83 66 -172
119 -225 222 -224 276 -472 176 -803 l-25 -85 0 -582 0 -582 -104 3 c-246 7
-428 41 -663 122 -101 35 -103 36 -104 67 0 17 -1 238 -1 491 l0 460 -28 90
c-68 221 -89 444 -55 576 21 82 31 93 101 129 189 94 340 325 380 580 12 77
11 211 -3 302 -45 307 -217 530 -457 592 -90 24 -233 16 -319 -17 -217 -84
-361 -294 -404 -592 -15 -100 -7 -267 17 -364 24 -100 94 -248 150 -321 51
-67 144 -145 212 -180 72 -36 82 -47 102 -127 16 -62 17 -259 1 -343 -14 -79
-49 -218 -66 -269 -17 -49 -19 -90 -19 -443 l0 -390 -52 38 c-522 377 -850
941 -914 1569 -13 130 -6 497 11 525 1 3 6 28 9 55 4 28 20 102 36 166 196
779 809 1392 1588 1588 64 17 140 33 167 37 28 3 52 7 55 9 3 2 46 6 95 10 50
4 91 8 92 9 6 5 284 -2 343 -8z m-1592 -1578 c-2 -241 2 -284 36 -383 29 -86
96 -241 131 -302 14 -25 23 -48 21 -50 -8 -8 -89 72 -138 137 -66 86 -125 209
-143 294 -17 85 -11 201 16 316 18 74 65 200 75 200 2 0 3 -96 2 -212z"/>
</g>
</svg>
