<svg width="418.25999755859374px" height="102.839990234375px" xmlns="http://www.w3.org/2000/svg" viewBox="40.87000122070313 23.580004882812503 418.25999755859374 102.839990234375" style="background: none;" preserveAspectRatio="xMidYMid"><defs><linearGradient id="editing-outline-gradient" x1="0.06162885321092254" x2="0.9383711467890774" y1="-0.39879404629916704" y2="1.398794046299167"><stop offset="0" stop-color="#ae350d"></stop><stop offset="1" stop-color="#251cf6"></stop></linearGradient><filter id="editing-outline" x="-100%" y="-100%" width="300%" height="300%"><feMorphology in="SourceGraphic" operator="dilate" radius="2" result="outline"></feMorphology><feComposite operator="out" in="outline" in2="SourceAlpha"></feComposite></filter></defs><g filter="url(#editing-outline)"><g transform="translate(104.96264190599322, 97.22500038146973)"><path d="M10.54-22.00L10.54-22.00L10.54-22.00Q13.92-24.16 13.92-28.27L13.92-28.27L13.92-28.27Q13.92-29.69 13.28-30.77L13.28-30.77L13.28-30.77Q12.64-31.85 11.22-31.85L11.22-31.85L11.22-31.85Q8.48-31.85 8.48-24.60L8.48-24.60L8.48-24.60Q8.48-23.91 8.58-22.44L8.58-22.44L8.58-22.44Q8.67-21.61 9.46-21.61L9.46-21.61L9.46-21.61Q9.95-21.61 10.54-22.00ZM18.08-21.22L18.08-21.22L18.08-21.22Q17.35-20.68 17.35-19.75L17.35-19.75L17.35-19.75Q17.35-19.45 17.39-19.31L17.39-19.31L17.39-19.31Q18.33-13.28 20.34-7.45L20.34-7.45L20.34-7.45Q20.97-5.59 22.20-4.83L22.20-4.83L22.20-4.83Q23.42-4.07 23.42-2.99L23.42-2.99L23.42-2.99Q23.42-1.32 21.24-0.27L21.24-0.27L21.24-0.27Q19.06 0.78 17.20 0.78L17.20 0.78L17.20 0.78Q15.19 0.78 14.41-0.88L14.41-0.88L14.41-0.88Q14.26-1.13 14.26-1.18L14.26-1.18L14.26-1.18Q12.89-3.82 12.01-11.66L12.01-11.66L12.01-11.66Q11.61-15.19 11.52-15.63L11.52-15.63L11.52-15.63Q11.52-16.17 10.83-16.17L10.83-16.17L10.83-16.17Q9.46-16.17 8.97-15.14L8.97-15.14L8.97-15.14Q8.58-14.11 8.58-10.09L8.58-10.09L8.58-10.09Q8.58-6.08 8.84-4.56L8.84-4.56L8.84-4.56Q9.11-3.04 9.11-2.65L9.11-2.65L9.11-2.65Q9.11-0.83 6.69 0.34L6.69 0.34L6.69 0.34Q4.26 1.52 2.16 1.52L2.16 1.52L2.16 1.52Q0.49 1.52 0.49-0.10L0.49-0.10L0.64-1.08L0.64-1.08Q1.86-10.19 1.86-19.89L1.86-19.89L1.67-27.10L1.67-27.10Q1.67-28.32 0.86-29.64L0.86-29.64L0.86-29.64Q0.05-30.97 0.05-31.70L0.05-31.70L0.05-31.70Q0.05-34.01 4.17-35.43L4.17-35.43L4.17-35.43Q8.28-36.85 11.71-36.85L11.71-36.85L11.71-36.85Q14.06-36.85 16.05-36.28L16.05-36.28L16.05-36.28Q18.03-35.72 19.18-34.94L19.18-34.94L19.18-34.94Q20.34-34.15 21.17-32.68L21.17-32.68L21.17-32.68Q22.00-31.21 22.00-29.20L22.00-29.20L22.00-29.20Q22.00-24.35 18.08-21.22ZM29.64-14.70L29.64-14.70L29.64-14.70Q29.64-14.41 29.84-14.21L29.84-14.21L29.84-14.21Q30.04-13.96 30.33-13.96L30.33-13.96L30.33-13.96Q33.12-14.21 34.05-16.61L34.05-16.61L34.05-16.61Q34.30-17.15 34.40-17.89L34.40-17.89L34.40-17.89Q34.35-19.60 33.03-19.60L33.03-19.60L33.03-19.60Q31.51-19.60 30.70-18.13L30.70-18.13L30.70-18.13Q29.89-16.66 29.64-14.70ZM33.00-24.11L33.00-24.11L33.00-24.11Q36.26-24.11 38.10-22.44L38.10-22.44L38.10-22.44Q39.94-20.78 39.94-17.39L39.94-17.39L39.94-17.39Q39.94-14.01 37.26-11.81L37.26-11.81L37.26-11.81Q34.59-9.60 30.53-9.60L30.53-9.60L30.53-9.60Q29.94-9.60 29.94-9.02L29.94-9.02L29.94-9.02Q29.94-7.84 30.80-6.98L30.80-6.98L30.80-6.98Q31.65-6.13 33.15-6.13L33.15-6.13L33.15-6.13Q34.64-6.13 35.84-7.50L35.84-7.50L35.84-7.50Q37.04-8.87 37.95-8.87L37.95-8.87L37.95-8.87Q38.86-8.87 39.40-8.09L39.40-8.09L39.40-8.09Q39.94-7.30 39.94-5.86L39.94-5.86L39.94-5.86Q39.94-4.41 39.22-2.96L39.22-2.96L39.22-2.96Q38.51-1.52 37.53-0.78L37.53-0.78L37.53-0.78Q36.55-0.05 35.33 0.39L35.33 0.39L35.33 0.39Q33.52 1.08 31.48 1.08L31.48 1.08L31.48 1.08Q29.45 1.08 27.68 0.10L27.68 0.10L27.68 0.10Q25.92-0.88 24.94-2.55L24.94-2.55L24.94-2.55Q23.03-5.88 23.03-9.92L23.03-9.92L23.03-9.92Q23.03-13.96 24.01-16.95L24.01-16.95L24.01-16.95Q24.99-19.94 27.37-22.03L27.37-22.03L27.37-22.03Q29.74-24.11 33.00-24.11ZM49.88-24.55L49.88-24.55L49.88-24.55Q56.35-24.55 56.35-20.73L56.35-20.73L56.35-20.73Q56.35-19.65 55.64-18.91L55.64-18.91L55.64-18.91Q54.93-18.18 54.02-18.18L54.02-18.18L54.02-18.18Q53.12-18.18 52.28-18.67L52.28-18.67L52.28-18.67Q51.45-19.16 50.42-19.16L50.42-19.16L50.42-19.16Q47.92-19.16 47.92-17.74L47.92-17.74L47.92-17.74Q47.92-17.10 48.71-16.66L48.71-16.66L48.71-16.66Q54.49-13.77 55.66-11.96L55.66-11.96L55.66-11.96Q57.09-9.85 57.09-6.91L57.09-6.91L57.09-6.91Q57.09-5.83 56.60-4.31L56.60-4.31L56.60-4.31Q56.11-2.79 55.27-1.74L55.27-1.74L55.27-1.74Q54.44-0.69 52.63 0.20L52.63 0.20L52.63 0.20Q50.81 1.08 48.31 1.08L48.31 1.08L48.31 1.08Q46.55 1.08 44.54 0.49L44.54 0.49L44.54 0.49Q40.47-0.69 40.47-4.36L40.47-4.36L40.47-4.36Q40.47-6.08 41.45-7.33L41.45-7.33L41.45-7.33Q42.43-8.58 43.90-8.58L43.90-8.58L43.90-8.58Q45.37-8.58 46.01-7.69L46.01-7.69L46.01-7.69Q46.06-7.64 46.31-7.25L46.31-7.25L46.31-7.25Q46.55-6.86 46.75-6.66L46.75-6.66L46.75-6.66Q47.38-6.03 48.41-6.03L48.41-6.03L48.41-6.03Q49.44-6.03 50.03-6.54L50.03-6.54L50.03-6.54Q50.62-7.06 50.62-7.94L50.62-7.94L50.62-7.94Q50.62-8.82 49.25-9.75L49.25-9.75L49.25-9.75Q47.87-10.68 46.23-11.37L46.23-11.37L46.23-11.37Q44.59-12.05 43.22-13.55L43.22-13.55L43.22-13.55Q41.85-15.04 41.85-17.05L41.85-17.05L41.85-17.05Q41.85-20.48 44.08-22.52L44.08-22.52L44.08-22.52Q46.31-24.55 49.88-24.55ZM65.17-31.02L65.17-31.02L65.07-28.67L65.07-28.67Q65.07-27.39 65.64-27.24L65.64-27.24L65.64-27.24Q66.20-27.10 66.74-27.10L66.74-27.10L66.74-27.10Q67.28-27.10 68.36-27.20L68.36-27.20L68.36-27.20Q69.38-27.20 69.38-25.87L69.38-25.87L69.38-25.87Q69.38-23.37 65.81-22.00L65.81-22.00L65.81-22.00Q65.32-21.80 65.12-21.12L65.12-21.12L65.12-21.12Q64.83-18.13 64.83-14.11L64.83-14.11L64.83-14.11Q64.83-10.09 65.12-8.82L65.12-8.82L65.12-8.82Q65.37-7.64 66.89-7.40L66.89-7.40L66.89-7.40Q67.23-7.40 67.52-7.06L67.52-7.06L67.52-7.06Q68.06-6.42 68.06-5.81L68.06-5.81L68.06-5.81Q68.06-5.19 67.96-4.63L67.96-4.63L67.96-4.63Q67.87-4.07 67.50-3.06L67.50-3.06L67.50-3.06Q67.13-2.06 66.57-1.20L66.57-1.20L66.57-1.20Q66.00-0.34 64.88 0.29L64.88 0.29L64.88 0.29Q63.75 0.93 62.33 0.93L62.33 0.93L62.33 0.93Q59.88 0.93 58.80-1.96L58.80-1.96L58.80-1.96Q58.41-3.09 58.41-4.66L58.41-4.66L58.80-17.84L58.80-17.84Q58.80-20.24 58.53-21.76L58.53-21.76L58.53-21.76Q58.26-23.28 56.64-24.60L56.64-24.60L56.64-24.60Q55.96-25.09 55.96-25.97L55.96-25.97L55.96-25.97Q55.96-26.85 56.84-27.73L56.84-27.73L56.84-27.73Q59.54-29.40 61.79-32.98L61.79-32.98L61.79-32.98Q62.48-33.91 63.50-33.91L63.50-33.91L63.50-33.91Q65.17-33.91 65.17-31.02ZM75.90-7.94L75.90-7.94L75.90-7.94Q75.90-5.88 77.37-5.88L77.37-5.88L77.37-5.88Q78.84-5.88 79.75-7.40L79.75-7.40L79.75-7.40Q80.65-8.92 80.65-10.09L80.65-10.09L80.65-10.09Q80.65-12.30 79.09-12.30L79.09-12.30L79.09-12.30Q77.67-12.30 76.78-10.88L76.78-10.88L76.78-10.88Q75.90-9.46 75.90-7.94ZM86.44-15.73L86.44-15.73L86.29-8.92L86.29-8.92Q86.29-4.85 87.32-4.21L87.32-4.21L87.32-4.21Q87.96-3.72 87.96-2.94L87.96-2.94L87.96-2.94Q87.96-1.52 86.07-0.29L86.07-0.29L86.07-0.29Q84.18 0.93 82.22 0.93L82.22 0.93L82.22 0.93Q81.24 0.93 80.75 0.51L80.75 0.51L80.75 0.51Q80.26 0.10 80.26-0.39L80.26-0.39L80.26-0.39Q80.26-1.72 79.92-1.72L79.92-1.72L79.92-1.72Q79.87-1.72 79.31-1.15L79.31-1.15L79.31-1.15Q78.74-0.59 77.64-0.02L77.64-0.02L77.64-0.02Q76.54 0.54 74.85 0.54L74.85 0.54L74.85 0.54Q73.16 0.54 71.86-0.29L71.86-0.29L71.86-0.29Q70.56-1.13 70.07-2.45L70.07-2.45L70.07-2.45Q69.19-4.66 69.19-6.57L69.19-6.57L69.19-6.57Q69.19-8.48 69.78-10.14L69.78-10.14L69.78-10.14Q70.36-11.81 71.25-12.84L71.25-12.84L71.25-12.84Q72.13-13.87 73.30-14.68L73.30-14.68L73.30-14.68Q74.48-15.48 75.51-15.85L75.51-15.85L75.51-15.85Q76.54-16.22 77.62-16.46L77.62-16.46L77.62-16.46Q79.14-16.76 79.72-16.76L79.72-16.76L80.21-17.39L80.21-17.39Q80.16-19.06 77.79-19.06L77.79-19.06L77.79-19.06Q75.41-19.06 73.89-18.13L73.89-18.13L73.89-18.13Q73.30-17.74 72.72-17.74L72.72-17.74L72.72-17.74Q71.54-17.74 71.54-19.50L71.54-19.50L71.54-19.50Q71.54-24.06 78.79-24.06L78.79-24.06L78.79-24.06Q84.38-24.06 85.80-20.34L85.80-20.34L85.80-20.34Q86.44-18.67 86.44-15.73ZM89.33-6.96L89.33-6.96L89.47-14.90L89.47-14.90Q89.47-16.32 89.23-17.37L89.23-17.37L89.23-17.37Q88.98-18.42 88.47-19.04L88.47-19.04L88.47-19.04Q87.96-19.65 87.96-20.34L87.96-20.34L87.96-20.34Q87.96-21.85 90.41-23.15L90.41-23.15L90.41-23.15Q92.86-24.45 94.18-24.45L94.18-24.45L94.18-24.45Q95.50-24.45 95.97-23.91L95.97-23.91L95.97-23.91Q96.43-23.37 96.43-21.95L96.43-21.95L96.43-21.95Q96.43-20.53 96.19-17.47L96.19-17.47L96.19-17.47Q95.94-14.41 95.94-13.77L95.94-13.77L95.94-13.77Q95.94-8.43 98.25-8.43L98.25-8.43L98.25-8.43Q99.91-8.43 100.50-11.91L100.50-11.91L100.50-11.91Q100.74-13.18 100.74-14.75L100.74-14.75L100.74-14.75Q100.74-17.89 100.21-19.40L100.21-19.40L100.21-19.40Q99.67-20.09 99.67-20.73L99.67-20.73L99.67-20.73Q99.67-22.20 101.87-23.20L101.87-23.20L101.87-23.20Q104.08-24.21 105.77-24.21L105.77-24.21L105.77-24.21Q107.46-24.21 107.46-22.52L107.46-22.52L107.46-22.52Q107.46-20.82 107.14-17.25L107.14-17.25L107.14-17.25Q106.82-13.67 106.82-11.59L106.82-11.59L106.82-11.59Q106.82-9.51 106.87-8.65L106.87-8.65L106.87-8.65Q106.92-7.79 107.38-6.10L107.38-6.10L107.38-6.10Q107.85-4.41 108.63-3.92L108.63-3.92L108.63-3.92Q109.47-3.53 109.47-2.87L109.47-2.87L109.47-2.87Q109.47-2.21 109.07-1.67L109.07-1.67L109.07-1.67Q107.26 0.83 103.34 0.83L103.34 0.83L103.34 0.83Q101.14 0.69 100.84-0.83L100.84-0.83L100.50-2.50L100.50-2.50Q100.45-2.84 100.21-2.84L100.21-2.84L99.81-2.65L99.81-2.65Q98.05 0.69 94.42 0.69L94.42 0.69L94.42 0.69Q89.33 0.59 89.33-6.96ZM117.94-3.77L117.94-3.77L118.04-2.55L118.04-2.55Q118.04-0.93 116.91-0.15L116.91-0.15L116.91-0.15Q115.00 1.18 112.06 1.18L112.06 1.18L112.06 1.18Q110.20 1.18 110.20-0.44L110.20-0.44L110.35-1.27L110.35-1.27Q111.52-7.06 111.52-15.44L111.52-15.44L111.52-15.44Q111.52-17.98 110.01-19.06L110.01-19.06L110.01-19.06Q109.47-19.40 109.47-20.19L109.47-20.19L109.47-20.19Q109.47-21.71 111.89-23.15L111.89-23.15L111.89-23.15Q114.32-24.60 115.79-24.60L115.79-24.60L115.79-24.60Q117.26-24.60 117.45-22.98L117.45-22.98L117.45-22.98Q117.65-21.85 117.65-21.29L117.65-21.29L117.65-21.29Q117.65-20.73 118.04-20.73L118.04-20.73L118.04-20.73Q118.29-20.73 118.41-20.95L118.41-20.95L118.41-20.95Q118.53-21.17 118.65-21.39L118.65-21.39L118.65-21.39Q118.78-21.61 119.22-22.17L119.22-22.17L119.22-22.17Q119.66-22.74 120.15-23.13L120.15-23.13L120.15-23.13Q121.42-24.26 122.99-24.26L122.99-24.26L122.99-24.26Q124.02-24.26 125.05-23.62L125.05-23.62L125.05-23.62Q126.96-22.44 126.96-18.96L126.96-18.96L126.96-18.96Q126.96-16.76 126.08-15.14L126.08-15.14L126.08-15.14Q125.20-13.52 123.24-13.52L123.24-13.52L123.24-13.52Q120.79-13.52 120.79-16.22L120.79-16.22L120.83-16.95L120.83-16.95Q120.83-17.79 120.15-17.79L120.15-17.79L120.15-17.79Q117.55-17.79 117.55-10.29L117.55-10.29L117.55-10.29Q117.55-8.33 117.94-3.77ZM132.10-7.94L132.10-7.94L132.10-7.94Q132.10-5.88 133.57-5.88L133.57-5.88L133.57-5.88Q135.04-5.88 135.95-7.40L135.95-7.40L135.95-7.40Q136.86-8.92 136.86-10.09L136.86-10.09L136.86-10.09Q136.86-12.30 135.29-12.30L135.29-12.30L135.29-12.30Q133.87-12.30 132.99-10.88L132.99-10.88L132.99-10.88Q132.10-9.46 132.10-7.94ZM142.64-15.73L142.64-15.73L142.49-8.92L142.49-8.92Q142.49-4.85 143.52-4.21L143.52-4.21L143.52-4.21Q144.16-3.72 144.16-2.94L144.16-2.94L144.16-2.94Q144.16-1.52 142.27-0.29L142.27-0.29L142.27-0.29Q140.39 0.93 138.43 0.93L138.43 0.93L138.43 0.93Q137.45 0.93 136.96 0.51L136.96 0.51L136.96 0.51Q136.47 0.10 136.47-0.39L136.47-0.39L136.47-0.39Q136.47-1.72 136.12-1.72L136.12-1.72L136.12-1.72Q136.07-1.72 135.51-1.15L135.51-1.15L135.51-1.15Q134.95-0.59 133.84-0.02L133.84-0.02L133.84-0.02Q132.74 0.54 131.05 0.54L131.05 0.54L131.05 0.54Q129.36 0.54 128.06-0.29L128.06-0.29L128.06-0.29Q126.76-1.13 126.27-2.45L126.27-2.45L126.27-2.45Q125.39-4.66 125.39-6.57L125.39-6.57L125.39-6.57Q125.39-8.48 125.98-10.14L125.98-10.14L125.98-10.14Q126.57-11.81 127.45-12.84L127.45-12.84L127.45-12.84Q128.33-13.87 129.51-14.68L129.51-14.68L129.51-14.68Q130.68-15.48 131.71-15.85L131.71-15.85L131.71-15.85Q132.74-16.22 133.82-16.46L133.82-16.46L133.82-16.46Q135.34-16.76 135.93-16.76L135.93-16.76L136.42-17.39L136.42-17.39Q136.37-19.06 133.99-19.06L133.99-19.06L133.99-19.06Q131.61-19.06 130.09-18.13L130.09-18.13L130.09-18.13Q129.51-17.74 128.92-17.74L128.92-17.74L128.92-17.74Q127.74-17.74 127.74-19.50L127.74-19.50L127.74-19.50Q127.74-24.06 135.00-24.06L135.00-24.06L135.00-24.06Q140.58-24.06 142.00-20.34L142.00-20.34L142.00-20.34Q142.64-18.67 142.64-15.73ZM152.64-12.50L152.64-12.50L152.54-8.82L152.54-8.82Q152.54-7.35 152.68-4.85L152.68-4.85L152.83-2.35L152.83-2.35Q152.83-0.73 151.70 0.05L151.70 0.05L151.70 0.05Q149.89 1.32 147.05 1.32L147.05 1.32L147.05 1.32Q145.04 1.32 145.04-0.39L145.04-0.39L145.14-1.18L145.14-1.18Q146.36-6.91 146.39-10.88L146.39-10.88L146.39-10.88Q146.41-14.85 146.14-16.17L146.14-16.17L146.14-16.17Q145.87-17.49 145.04-18.40L145.04-18.40L145.04-18.40Q144.21-19.31 144.21-19.89L144.21-19.89L144.21-19.89Q144.21-21.51 146.76-22.98L146.76-22.98L146.76-22.98Q149.30-24.45 150.80-24.45L150.80-24.45L150.80-24.45Q152.29-24.45 152.49-22.83L152.49-22.83L152.49-22.83Q152.59-20.68 153.03-20.68L153.03-20.68L153.03-20.68Q153.17-20.68 153.37-20.82L153.37-20.82L153.37-20.82Q153.57-21.17 153.98-21.66L153.98-21.66L153.98-21.66Q154.40-22.15 155.80-22.96L155.80-22.96L155.80-22.96Q157.19-23.77 159.01-23.77L159.01-23.77L159.01-23.77Q160.82-23.77 161.99-22.30L161.99-22.30L161.99-22.30Q163.17-20.82 163.42-18.82L163.42-18.82L163.42-18.82Q163.51-17.98 163.51-16.07L163.51-16.07L163.32-8.82L163.32-8.82Q163.32-5.49 164.84-4.26L164.84-4.26L164.84-4.26Q165.72-3.82 165.72-3.16L165.72-3.16L165.72-3.16Q165.72-2.50 165.33-1.96L165.33-1.96L165.33-1.96Q163.46 0.69 159.25 0.69L159.25 0.69L159.25 0.69Q157.24 0.64 156.90-0.93L156.90-0.93L156.90-0.93Q156.75-1.62 156.75-3.06L156.75-3.06L156.75-3.06Q156.75-4.51 157.02-7.62L157.02-7.62L157.02-7.62Q157.29-10.73 157.29-12.20L157.29-12.20L157.29-12.20Q157.29-16.56 155.33-16.56L155.33-16.56L155.33-16.56Q154.06-16.56 153.35-15.19L153.35-15.19L153.35-15.19Q152.64-13.82 152.64-12.50ZM173.26-31.02L173.26-31.02L173.17-28.67L173.17-28.67Q173.17-27.39 173.73-27.24L173.73-27.24L173.73-27.24Q174.29-27.10 174.83-27.10L174.83-27.10L174.83-27.10Q175.37-27.10 176.45-27.20L176.45-27.20L176.45-27.20Q177.48-27.20 177.48-25.87L177.48-25.87L177.48-25.87Q177.48-23.37 173.90-22.00L173.90-22.00L173.90-22.00Q173.41-21.80 173.22-21.12L173.22-21.12L173.22-21.12Q172.92-18.13 172.92-14.11L172.92-14.11L172.92-14.11Q172.92-10.09 173.22-8.82L173.22-8.82L173.22-8.82Q173.46-7.64 174.98-7.40L174.98-7.40L174.98-7.40Q175.32-7.40 175.62-7.06L175.62-7.06L175.62-7.06Q176.16-6.42 176.16-5.81L176.16-5.81L176.16-5.81Q176.16-5.19 176.06-4.63L176.06-4.63L176.06-4.63Q175.96-4.07 175.59-3.06L175.59-3.06L175.59-3.06Q175.22-2.06 174.66-1.20L174.66-1.20L174.66-1.20Q174.10-0.34 172.97 0.29L172.97 0.29L172.97 0.29Q171.84 0.93 170.42 0.93L170.42 0.93L170.42 0.93Q167.97 0.93 166.89-1.96L166.89-1.96L166.89-1.96Q166.50-3.09 166.50-4.66L166.50-4.66L166.89-17.84L166.89-17.84Q166.89-20.24 166.62-21.76L166.62-21.76L166.62-21.76Q166.36-23.28 164.74-24.60L164.74-24.60L164.74-24.60Q164.05-25.09 164.05-25.97L164.05-25.97L164.05-25.97Q164.05-26.85 164.93-27.73L164.93-27.73L164.93-27.73Q167.63-29.40 169.88-32.98L169.88-32.98L169.88-32.98Q170.57-33.91 171.60-33.91L171.60-33.91L171.60-33.91Q173.26-33.91 173.26-31.02ZM199.28-23.23L199.28-23.23L201.24-23.28L201.24-23.28Q202.62-23.28 202.62-21.80L202.62-21.80L202.62-21.80Q202.62-19.85 201.24-18.79L201.24-18.79L201.24-18.79Q199.87-17.74 197.81-17.59L197.81-17.59L197.81-17.59Q197.08-17.59 196.47-17.22L196.47-17.22L196.47-17.22Q195.85-16.86 195.80-16.41L195.80-16.41L195.80-16.41Q195.46-12.84 195.46-8.09L195.46-8.09L195.46-8.09Q195.46-3.33 195.95 1.27L195.95 1.27L195.95 1.27Q196.10 1.76 196.10 2.38L196.10 2.38L196.10 2.38Q196.10 2.99 195.80 3.58L195.80 3.58L195.80 3.58Q194.87 5.24 193.06 6.27L193.06 6.27L193.06 6.27Q190.61 7.60 188.72 7.60L188.72 7.60L188.72 7.60Q186.84 7.60 186.84 6.22L186.84 6.22L187.03 5.24L187.03 5.24Q188.94-2.60 188.94-15.58L188.94-15.58L188.94-16.17L188.94-16.17Q188.94-16.46 188.70-16.46L188.70-16.46L188.70-16.46Q186.84-16.46 186.84-18.13L186.84-18.13L186.84-18.13Q186.84-19.11 187.67-20.90L187.67-20.90L187.67-20.90Q188.50-22.69 189.43-22.93L189.43-22.93L189.43-22.93Q189.48-23.57 189.48-24.50L189.48-24.50L189.48-24.50Q189.48-29.01 188.01-30.18L188.01-30.18L188.01-30.18Q187.52-30.77 187.52-31.65L187.52-31.65L187.52-31.65Q187.52-33.22 189.58-34.45L189.58-34.45L189.58-34.45Q193.50-36.55 198.74-36.55L198.74-36.55L198.74-36.55Q200.02-36.55 200.83-36.46L200.83-36.46L200.83-36.46Q201.64-36.36 202.42-35.79L202.42-35.79L202.42-35.79Q203.20-35.23 203.20-34.15L203.20-34.15L203.20-34.15Q203.20-32.34 200.56-31.56L200.56-31.56L200.56-31.56Q197.91-30.77 196.98-29.40L196.98-29.40L196.98-29.40Q196.05-28.03 196.05-25.58L196.05-25.58L196.05-25.58Q196.05-25.04 196.15-23.96L196.15-23.96L196.15-23.96Q196.20-23.23 199.28-23.23ZM204.82-11.17L204.67-16.02L204.67-16.02Q204.67-16.81 204.31-17.49L204.31-17.49L204.31-17.49Q203.94-18.18 203.35-18.72L203.35-18.72L203.35-18.72Q202.76-19.26 202.76-19.89L202.76-19.89L202.76-19.89Q202.76-21.56 205.31-22.86L205.31-22.86L205.31-22.86Q207.86-24.16 209.60-24.16L209.60-24.16L209.60-24.16Q211.34-24.16 211.39-22.39L211.39-22.39L211.39-22.39Q211.39-21.17 211.17-18.01L211.17-18.01L211.17-18.01Q210.95-14.85 210.95-12.15L210.95-12.15L210.95-12.15Q210.95-5.63 212.12-3.97L212.12-3.97L212.12-3.97Q212.81-3.58 212.81-2.74L212.81-2.74L212.81-2.74Q212.81-1.13 211.02-0.20L211.02-0.20L211.02-0.20Q209.23 0.73 206.98 0.73L206.98 0.73L206.98 0.73Q203.99 0.73 203.99-1.27L203.99-1.27L203.99-1.27Q203.99-1.37 204.13-2.40L204.13-2.40L204.13-2.40Q204.82-6.32 204.82-11.17L204.82-11.17ZM211.88-31.61L211.88-31.61L211.88-31.61Q211.88-29.79 210.14-28.69L210.14-28.69L210.14-28.69Q208.40-27.59 206.78-27.59L206.78-27.59L206.78-27.59Q205.16-27.59 204.26-28.20L204.26-28.20L204.26-28.20Q203.35-28.81 203.35-29.84L203.35-29.84L203.35-29.84Q203.35-31.70 205.11-32.85L205.11-32.85L205.11-32.85Q206.88-34.01 208.47-34.01L208.47-34.01L208.47-34.01Q210.06-34.01 210.97-33.37L210.97-33.37L210.97-33.37Q211.88-32.73 211.88-31.61ZM221.53-12.50L221.53-12.50L221.43-8.82L221.43-8.82Q221.43-7.35 221.58-4.85L221.58-4.85L221.73-2.35L221.73-2.35Q221.73-0.73 220.60 0.05L220.60 0.05L220.60 0.05Q218.79 1.32 215.94 1.32L215.94 1.32L215.94 1.32Q213.93 1.32 213.93-0.39L213.93-0.39L214.03-1.18L214.03-1.18Q215.26-6.91 215.28-10.88L215.28-10.88L215.28-10.88Q215.31-14.85 215.04-16.17L215.04-16.17L215.04-16.17Q214.77-17.49 213.93-18.40L213.93-18.40L213.93-18.40Q213.10-19.31 213.10-19.89L213.10-19.89L213.10-19.89Q213.10-21.51 215.65-22.98L215.65-22.98L215.65-22.98Q218.20-24.45 219.69-24.45L219.69-24.45L219.69-24.45Q221.19-24.45 221.38-22.83L221.38-22.83L221.38-22.83Q221.48-20.68 221.92-20.68L221.92-20.68L221.92-20.68Q222.07-20.68 222.26-20.82L222.26-20.82L222.26-20.82Q222.46-21.17 222.88-21.66L222.88-21.66L222.88-21.66Q223.29-22.15 224.69-22.96L224.69-22.96L224.69-22.96Q226.09-23.77 227.90-23.77L227.90-23.77L227.90-23.77Q229.71-23.77 230.89-22.30L230.89-22.30L230.89-22.30Q232.06-20.82 232.31-18.82L232.31-18.82L232.31-18.82Q232.41-17.98 232.41-16.07L232.41-16.07L232.21-8.82L232.21-8.82Q232.21-5.49 233.73-4.26L233.73-4.26L233.73-4.26Q234.61-3.82 234.61-3.16L234.61-3.16L234.61-3.16Q234.61-2.50 234.22-1.96L234.22-1.96L234.22-1.96Q232.36 0.69 228.14 0.69L228.14 0.69L228.14 0.69Q226.14 0.64 225.79-0.93L225.79-0.93L225.79-0.93Q225.65-1.62 225.65-3.06L225.65-3.06L225.65-3.06Q225.65-4.51 225.91-7.62L225.91-7.62L225.91-7.62Q226.18-10.73 226.18-12.20L226.18-12.20L226.18-12.20Q226.18-16.56 224.22-16.56L224.22-16.56L224.22-16.56Q222.95-16.56 222.24-15.19L222.24-15.19L222.24-15.19Q221.53-13.82 221.53-12.50ZM253.43-11.22L253.43-10.29L253.48-9.11L253.48-8.92L253.48-8.92Q253.48-6.32 255.05-5.24L255.05-5.24L255.05-5.24Q255.78-4.66 255.78-3.97L255.78-3.97L255.78-3.97Q255.78-3.28 255.44-2.79L255.44-2.79L255.44-2.79Q254.36-1.23 252.74-0.29L252.74-0.29L252.74-0.29Q250.59 0.98 248.97 0.98L248.97 0.98L248.97 0.98Q247.35 0.98 247.21-0.59L247.21-0.59L247.21-0.59Q247.11-1.81 246.72-1.81L246.72-1.81L246.37-1.62L246.37-1.62Q244.71 0.69 241.96 0.69L241.96 0.69L241.96 0.69Q239.95 0.69 238.51-0.34L238.51-0.34L238.51-0.34Q237.06-1.37 236.33-3.14L236.33-3.14L236.33-3.14Q234.91-6.47 234.91-10.63L234.91-10.63L234.91-10.63Q234.91-15.09 237.16-19.21L237.16-19.21L237.16-19.21Q238.29-21.17 240.20-22.42L240.20-22.42L240.20-22.42Q242.11-23.67 244.41-23.67L244.41-23.67L244.41-23.67Q245.49-23.67 246.18-23.37L246.18-23.37L246.86-23.08L246.86-23.08Q247.21-23.08 247.28-23.86L247.28-23.86L247.28-23.86Q247.35-24.65 247.35-25.90L247.35-25.90L247.35-25.90Q247.35-27.15 247.25-27.95L247.25-27.95L247.25-27.95Q247.16-28.76 247.01-29.16L247.01-29.16L247.01-29.16Q246.86-29.55 246.67-29.79L246.67-29.79L246.67-29.79Q246.37-30.18 245.69-30.63L245.69-30.63L245.69-30.63Q245.05-31.07 245.05-31.85L245.05-31.85L245.05-31.85Q245.05-33.47 247.82-34.94L247.82-34.94L247.82-34.94Q250.59-36.41 252.40-36.41L252.40-36.41L252.40-36.41Q253.77-36.41 253.92-35.18L253.92-35.18L253.92-35.18Q254.02-34.69 254.02-33.22L254.02-33.22L254.02-33.22Q254.02-31.75 253.70-27.24L253.70-27.24L253.70-27.24Q253.38-22.74 253.38-18.62L253.38-18.62L253.38-13.72L253.43-11.22ZM243.24-8.04L243.24-8.04L243.24-8.04Q245.05-8.04 246.15-10.09L246.15-10.09L246.15-10.09Q247.25-12.15 247.25-13.77L247.25-13.77L247.25-13.77Q247.25-17.59 245.15-17.59L245.15-17.59L245.15-17.59Q243.43-17.59 242.28-15.41L242.28-15.41L242.28-15.41Q241.13-13.23 241.13-11.27L241.13-11.27L241.13-11.27Q241.13-8.23 243.24-8.04ZM262.69-14.70L262.69-14.70L262.69-14.70Q262.69-14.41 262.89-14.21L262.89-14.21L262.89-14.21Q263.08-13.96 263.38-13.96L263.38-13.96L263.38-13.96Q266.17-14.21 267.10-16.61L267.10-16.61L267.10-16.61Q267.34-17.15 267.44-17.89L267.44-17.89L267.44-17.89Q267.39-19.60 266.07-19.60L266.07-19.60L266.07-19.60Q264.55-19.60 263.74-18.13L263.74-18.13L263.74-18.13Q262.93-16.66 262.69-14.70ZM266.05-24.11L266.05-24.11L266.05-24.11Q269.30-24.11 271.14-22.44L271.14-22.44L271.14-22.44Q272.98-20.78 272.98-17.39L272.98-17.39L272.98-17.39Q272.98-14.01 270.31-11.81L270.31-11.81L270.31-11.81Q267.64-9.60 263.57-9.60L263.57-9.60L263.57-9.60Q262.98-9.60 262.98-9.02L262.98-9.02L262.98-9.02Q262.98-7.84 263.84-6.98L263.84-6.98L263.84-6.98Q264.70-6.13 266.19-6.13L266.19-6.13L266.19-6.13Q267.69-6.13 268.89-7.50L268.89-7.50L268.89-7.50Q270.09-8.87 270.99-8.87L270.99-8.87L270.99-8.87Q271.90-8.87 272.44-8.09L272.44-8.09L272.44-8.09Q272.98-7.30 272.98-5.86L272.98-5.86L272.98-5.86Q272.98-4.41 272.27-2.96L272.27-2.96L272.27-2.96Q271.56-1.52 270.58-0.78L270.58-0.78L270.58-0.78Q269.60-0.05 268.37 0.39L268.37 0.39L268.37 0.39Q266.56 1.08 264.53 1.08L264.53 1.08L264.53 1.08Q262.49 1.08 260.73 0.10L260.73 0.10L260.73 0.10Q258.97-0.88 257.99-2.55L257.99-2.55L257.99-2.55Q256.07-5.88 256.07-9.92L256.07-9.92L256.07-9.92Q256.07-13.96 257.05-16.95L257.05-16.95L257.05-16.95Q258.03-19.94 260.41-22.03L260.41-22.03L260.41-22.03Q262.79-24.11 266.05-24.11ZM282.00-3.77L282.00-3.77L282.09-2.55L282.09-2.55Q282.09-0.93 280.97-0.15L280.97-0.15L280.97-0.15Q279.06 1.18 276.12 1.18L276.12 1.18L276.12 1.18Q274.25 1.18 274.25-0.44L274.25-0.44L274.40-1.27L274.40-1.27Q275.58-7.06 275.58-15.44L275.58-15.44L275.58-15.44Q275.58-17.98 274.06-19.06L274.06-19.06L274.06-19.06Q273.52-19.40 273.52-20.19L273.52-20.19L273.52-20.19Q273.52-21.71 275.94-23.15L275.94-23.15L275.94-23.15Q278.37-24.60 279.84-24.60L279.84-24.60L279.84-24.60Q281.31-24.60 281.51-22.98L281.51-22.98L281.51-22.98Q281.70-21.85 281.70-21.29L281.70-21.29L281.70-21.29Q281.70-20.73 282.09-20.73L282.09-20.73L282.09-20.73Q282.34-20.73 282.46-20.95L282.46-20.95L282.46-20.95Q282.58-21.17 282.71-21.39L282.71-21.39L282.71-21.39Q282.83-21.61 283.27-22.17L283.27-22.17L283.27-22.17Q283.71-22.74 284.20-23.13L284.20-23.13L284.20-23.13Q285.47-24.26 287.04-24.26L287.04-24.26L287.04-24.26Q288.07-24.26 289.10-23.62L289.10-23.62L289.10-23.62Q291.01-22.44 291.01-18.96L291.01-18.96L291.01-18.96Q291.01-16.76 290.13-15.14L290.13-15.14L290.13-15.14Q289.25-13.52 287.29-13.52L287.29-13.52L287.29-13.52Q284.84-13.52 284.84-16.22L284.84-16.22L284.89-16.95L284.89-16.95Q284.89-17.79 284.20-17.79L284.20-17.79L284.20-17.79Q281.60-17.79 281.60-10.29L281.60-10.29L281.60-10.29Q281.60-8.33 282.00-3.77Z" fill="url(#editing-outline-gradient)"></path></g></g><style>text {
  font-size: 64px;
  font-family: Arial Black;
  dominant-baseline: central;
  text-anchor: middle;
}</style></svg>